<svg xmlns="http://www.w3.org/2000/svg" viewBox="0 0 64 32" width="64" height="32">
  <defs>
    <linearGradient id="starHeartGradient" x1="0%" y1="0%" x2="100%" y2="100%">
      <stop offset="0%" stop-color="#667eea" />
      <stop offset="50%" stop-color="#764ba2" />
      <stop offset="100%" stop-color="#f093fb" />
    </linearGradient>
  </defs>
  <rect width="64" height="32" fill="none"/>
  <!-- Star (Left, moved up) -->
  <path fill="url(#starHeartGradient)" transform="translate(0, -1) scale(1.2)"
    d="M12 2l3.1 8.7H24l-7.1 5.2L19.8 26 12 20.1 4.2 26l2.9-10.1L0 10.7h8.9L12 2z"/>
  <!-- Heart (Right, scaled down 20%) -->
  <path fill="url(#starHeartGradient)" transform="translate(34, 6) scale(1.12)"
    d="M10 0c-2.2 0-4 1.4-5 3.4C4 1.4 2.2 0 0 0c-3.3 0-6 2.9-6 6.4 0 4.3 4.2 7.8 10.5 13.1
       0.9 0.8 2.1 0.8 3 0C14.8 14.2 19 10.7 19 6.4 19 2.9 16.3 0 13 0z"/>
</svg>
